<svg id="visual" viewBox="0 0 900 300" width="900" height="300"
     xmlns="http://www.w3.org/2000/svg" version="1.1">
    <path d="M0 99L21.5 98.7C43 98.3 86 97.7 128.8 94C171.7 90.3 214.3 83.7 257.2 82.5C300 81.3 343 85.7 385.8 93C428.7 100.3 471.3 110.7 514.2 109.5C557 108.3 600 95.7 642.8 93C685.7 90.3 728.3 97.7 771.2 98.2C814 98.7 857 92.3 878.5 89.2L900 86L900 0L878.5 0C857 0 814 0 771.2 0C728.3 0 685.7 0 642.8 0C600 0 557 0 514.2 0C471.3 0 428.7 0 385.8 0C343 0 300 0 257.2 0C214.3 0 171.7 0 128.8 0C86 0 43 0 21.5 0L0 0Z"
          fill="#fa7268"></path>
    <path d="M0 71L21.5 75.8C43 80.7 86 90.3 128.8 91.5C171.7 92.7 214.3 85.3 257.2 78.8C300 72.3 343 66.7 385.8 69.2C428.7 71.7 471.3 82.3 514.2 83C557 83.7 600 74.3 642.8 72.3C685.7 70.3 728.3 75.7 771.2 81.7C814 87.7 857 94.3 878.5 97.7L900 101L900 0L878.5 0C857 0 814 0 771.2 0C728.3 0 685.7 0 642.8 0C600 0 557 0 514.2 0C471.3 0 428.7 0 385.8 0C343 0 300 0 257.2 0C214.3 0 171.7 0 128.8 0C86 0 43 0 21.5 0L0 0Z"
          fill="#ef5f67"></path>
    <path d="M0 50L21.5 49C43 48 86 46 128.8 49C171.7 52 214.3 60 257.2 65.5C300 71 343 74 385.8 72C428.7 70 471.3 63 514.2 58C557 53 600 50 642.8 48.2C685.7 46.3 728.3 45.7 771.2 45.2C814 44.7 857 44.3 878.5 44.2L900 44L900 0L878.5 0C857 0 814 0 771.2 0C728.3 0 685.7 0 642.8 0C600 0 557 0 514.2 0C471.3 0 428.7 0 385.8 0C343 0 300 0 257.2 0C214.3 0 171.7 0 128.8 0C86 0 43 0 21.5 0L0 0Z"
          fill="#e34c67"></path>
    <path d="M0 46L21.5 47.2C43 48.3 86 50.7 128.8 48.7C171.7 46.7 214.3 40.3 257.2 38C300 35.7 343 37.3 385.8 41.3C428.7 45.3 471.3 51.7 514.2 51.3C557 51 600 44 642.8 43.5C685.7 43 728.3 49 771.2 49C814 49 857 43 878.5 40L900 37L900 0L878.5 0C857 0 814 0 771.2 0C728.3 0 685.7 0 642.8 0C600 0 557 0 514.2 0C471.3 0 428.7 0 385.8 0C343 0 300 0 257.2 0C214.3 0 171.7 0 128.8 0C86 0 43 0 21.5 0L0 0Z"
          fill="#d53867"></path>
    <path d="M0 17L21.5 19.2C43 21.3 86 25.7 128.8 25C171.7 24.3 214.3 18.7 257.2 19.7C300 20.7 343 28.3 385.8 31.2C428.7 34 471.3 32 514.2 28.2C557 24.3 600 18.7 642.8 15.8C685.7 13 728.3 13 771.2 13.8C814 14.7 857 16.3 878.5 17.2L900 18L900 0L878.5 0C857 0 814 0 771.2 0C728.3 0 685.7 0 642.8 0C600 0 557 0 514.2 0C471.3 0 428.7 0 385.8 0C343 0 300 0 257.2 0C214.3 0 171.7 0 128.8 0C86 0 43 0 21.5 0L0 0Z"
          fill="#c62368"></path>
</svg>
